<?xml version="1.0" encoding="UTF-8"?>
<svg id="_レイヤー_1" data-name="レイヤー_1" xmlns="http://www.w3.org/2000/svg" version="1.1" viewBox="0 0 1280 886">
  <!-- Generator: Adobe Illustrator 30.2.1, SVG Export Plug-In . SVG Version: 2.1.1 Build 1)  -->
  <defs>
    <style>
      .st0 {
        fill: #f4dbe4;
      }

      .st1 {
        fill: #fbe2eb;
      }

      .st2 {
        fill: #e2eeef;
      }

      .st3 {
        fill: #e8cfd8;
      }

      .st4 {
        fill: #e6b9c8;
      }

      .st5 {
        fill: #eac9d4;
      }

      .st6 {
        fill: #eccdd8;
      }

      .st7 {
        fill: #e9d1d9;
      }

      .st8 {
        fill: #eac2d0;
      }

      .st9 {
        fill: #ecced8;
      }

      .st10 {
        fill: #cbe5e4;
      }

      .st11 {
        fill: #e6b7c7;
      }

      .st12 {
        fill: #e9cbd5;
      }

      .st13 {
        fill: #e8cbd5;
      }

      .st14 {
        fill: #e5dcf1;
      }

      .st15 {
        fill: #e8e0f1;
      }

      .st16 {
        fill: #fcddc1;
      }

      .st17 {
        fill: #fbedf2;
      }

      .st18 {
        fill: #faf1f4;
      }

      .st19 {
        fill: #f9e5d2;
      }

      .st20 {
        fill: #e7c9d3;
      }

      .st21 {
        fill: #e7bfcc;
      }

      .st22 {
        fill: #e7cad4;
      }

      .st23 {
        fill: #c5e7e6;
      }

      .st24 {
        fill: #eed1db;
      }

      .st25 {
        fill: #fef2f6;
      }
    </style>
  </defs>
  <path class="st1" d="M730.81,119.81c2.42,0,4.83-.02,7.25-.04,15-.06,29.18,2.08,43.87,5.16,1.25.25,2.5.5,3.78.76,6.35,1.32,12.3,2.81,18.28,5.3,1.67.64,3.35,1.27,5.02,1.9,1.78.68,3.57,1.36,5.35,2.04q1.32.5,2.67,1.01c9.56,3.64,18.97,7.39,28.2,11.8q1.37.65,2.77,1.32c7.55,3.64,14.82,7.58,21.98,11.93q1.3.79,2.63,1.59c14.39,8.96,28.23,18.81,41.68,29.12,1.55,1.18,3.11,2.33,4.68,3.49.83.61,1.66,1.23,2.51,1.86.69.51,1.38,1.01,2.09,1.54q.7.69,1.41,1.4v3c-2.52-.14-5.04-.29-7.56-.44-.7-.04-1.41-.08-2.13-.12-.7-.04-1.4-.08-2.12-.13-.63-.04-1.27-.07-1.92-.11-1.84-.17-3.67-.42-5.49-.71-4.14-.55-8.17-.71-12.34-.77-.82-.01-1.64-.03-2.49-.04-77.46-.95-151.25,24.01-216.94,64.31-1.12.68-2.24,1.36-3.39,2.06-5.8,3.59-11.23,7.57-16.65,11.7-2.7,2.05-5.44,4.02-8.2,5.99-12.25,8.89-23.74,18.8-35.09,28.79-1.52,1.34-3.04,2.66-4.57,3.99-4.36,3.84-8.37,7.74-12.11,12.18-2.05,2.38-4.18,4.68-6.33,6.97-5.51,5.89-10.72,11.91-15.64,18.32-.66.82-1.32,1.63-2,2.48-10.53,13.41-18.97,28.53-27,43.52h-4c-.06-10.81-.07-21.63-.02-32.44.01-2.64.01-5.27,0-7.91-.1-31.88,5.76-65.5,16.01-95.65q.47-1.43.95-2.89c1.9-5.75,3.92-11.44,6.05-17.11.37-1.02.74-2.03,1.12-3.08,2.75-7.08,6.28-13.8,9.75-20.54.49-.97.99-1.93,1.5-2.93,2.98-5.69,6.23-10.99,10-16.19,1.66-2.3,3.24-4.64,4.81-7,4.34-6.19,9.28-11.85,14.28-17.52.98-1.11,1.96-2.23,2.94-3.35,9.84-11.31,20.6-20.82,33.59-28.38.59-.35,1.17-.7,1.78-1.05,9.75-5.77,19.71-10.71,30.22-14.95.61-.25,1.22-.51,1.85-.77,5.7-2.28,11.54-3.57,17.53-4.86,1.97-.43,3.93-.86,5.9-1.29.86-.19,1.72-.37,2.61-.56q2.16-.45,4.12-1.52c8.83-1.4,17.9-1.19,26.81-1.19Z"/>
  <path class="st11" d="M906,211v2c.8.25,1.61.49,2.44.75.85.41,1.69.83,2.56,1.25q.66,2.08,1,4c-1.09-.07-2.17-.14-3.29-.21-36.83-1.54-74.4,10.17-108.71,22.21-1.43.49-2.85.98-4.28,1.47-5.54,1.93-10.93,4-16.26,6.46-3.03,1.31-6.11,2.39-9.21,3.5-8.31,3.03-16.37,6.63-24.44,10.25-.64.29-1.29.58-1.95.87-1.86.83-3.73,1.67-5.59,2.51q-1.63.74-3.29,1.49c-2.77,1.34-5.35,2.84-7.98,4.44-1.7.73-3.39,1.46-5.1,2.17-3.5,1.54-6.85,3.39-10.21,5.21-4.6,2.46-9.19,4.91-13.88,7.19-4.64,2.29-9.11,4.85-13.58,7.43-3.46,2-6.95,3.94-10.48,5.82-11.9,6.44-23.44,13.71-34.54,21.43q-4.01,2.75-6.21,2.75v2c-1.99,1.52-3.98,2.93-6.06,4.31-1.2.81-2.39,1.61-3.59,2.42-.58.39-1.16.78-1.75,1.18-1.96,1.34-3.88,2.74-5.79,4.15q-2.81,1.94-4.81,1.94v2c-1.68,1.33-3.42,2.59-5.19,3.81-3.99,2.82-7.4,5.68-10.81,9.19-1.32,1.02-2.65,2.02-4,3-3.31,2.44-6.16,5.01-9,8-1.35,1.33-2.71,2.67-4.06,4-2.28,2.27-4.31,4.47-6.31,7q-.8.99-1.62,2h-2c-.66,1.65-1.32,3.3-2,5h-2c.45-5.86,1.51-9.67,4.56-14.81.35-.6.71-1.19,1.07-1.81,4.43-7.35,9.23-14.36,15.37-20.38,1.07-1.22,2.14-2.45,3.19-3.69,5.76-6.62,11.98-12.72,18.65-18.43,2.6-2.26,5.13-4.61,7.66-6.95,3.65-3.32,7.31-6.44,11.3-9.33,2.25-1.65,4.44-3.36,6.63-5.08,6.57-5.15,13.37-9.84,20.36-14.4,1.88-1.25,3.74-2.53,5.52-3.91q1.69-1.21,3.69-1.21v-2c.55-.24,1.1-.49,1.66-.74,5.55-2.61,10.55-5.67,15.59-9.13,5.82-3.99,11.64-7.27,18.04-10.26,3.22-1.55,6.26-3.36,9.32-5.19,6.26-3.69,12.7-6.75,19.32-9.73,1.08-.49,2.15-.98,3.26-1.49,2.18-.99,4.36-1.98,6.53-2.97,3.26-1.48,6.5-2.99,9.74-4.5,6.6-3.05,13.29-5.86,20.03-8.61,1.12-.46,2.24-.93,3.39-1.41,7.59-3.1,15.24-5.65,23.11-7.97,1.38-.43,2.76-.87,4.14-1.31,3.95-1.25,7.9-2.48,11.86-3.69.69-.21,1.37-.43,2.08-.65,28.14-8.64,68.31-17.16,95.92-3.35Z"/>
  <path class="st21" d="M591,340q0,3-2,6c.99.33,1.98.66,3,1-.58,2.39-1.22,4.67-2,7h2c-.74,6.68-8.82,11.61-13.63,15.89-2.43,2.2-4.58,4.37-6.62,6.95q-.87,1.07-1.75,2.16h-2q-.99,2.47-2,5h-2c.45-5.86,1.51-9.67,4.56-14.81q.53-.89,1.07-1.81c4.43-7.35,9.23-14.36,15.37-20.38,1.1-1.24,2.18-2.49,3.25-3.75.52-.61,1.04-1.23,1.58-1.86.39-.46.77-.92,1.17-1.39Z"/>
  <path class="st8" d="M893,207c4.38,1.23,8.7,2.53,13,4v2c.8.25,1.61.49,2.44.75q1.27.62,2.56,1.25.66,2.08,1,4c-.58,0-1.16-.01-1.75-.02q-15.15-.19-30.25,1.02c2.85-2.85,5.8-2.46,9.62-2.62.71-.04,1.41-.08,2.14-.12,1.74-.09,3.49-.18,5.23-.26-.21-.76-.41-1.53-.62-2.31q-.38-2.69,1.62-5.69h-5v-2Z"/>
  <path class="st9" d="M572,364h1v6h2l1-2c.33.99.66,1.98,1,3q-1.36,2.04-3.31,4.19c-.64.72-1.27,1.43-1.93,2.17q-1.76,1.64-3.76,1.64-.99,2.48-2,5h-2c.15-7.88,3.62-13.56,8-20Z"/>
  <path class="st23" d="M745.54,806.56c-.45.39-.81.73-1.54,1.44v2c.53-.18.96-.32,1.33-.45-.2-.96-.12-2.01.21-2.99Z"/>
  <path class="st18" d="M539,364h1c.33,11.55.66,23.1,1,35,.33-.66.66-1.32,1-2h2l1-5h2c-1.16,3.91-2.36,6.87-5,10-.99-.33-1.98-.66-3-1v-37Z"/>
  <path class="st15" d="M292.09,405.63c-.4,1.82-.74,3.63-.97,5.48.76-1.98,1.5-3.98,2.23-5.98-.4.22-.82.38-1.25.49Z"/>
  <path class="st0" d="M567,372l1,4c1.32.33,2.64.66,4,1-.62.23-1.24.45-1.88.69-2.74,1.69-3.18,3.3-4.12,6.31h-2q.86-8.57,3-12Z"/>
  <path class="st5" d="M645,294l2,1c-1.45,2.56-2.94,4.88-5,7q-3.81.94-7,1c3.17-3.26,6.4-6.22,10-9Z"/>
  <path class="st20" d="M672,296h7c-4.19,3.58-8.3,7-14,7v-3q3.46-.49,7-1v-3Z"/>
  <path class="st6" d="M832,210v2c-5.76,1.3-11.09,2.26-17,2v-1q11.52-3.44,17-3Z"/>
  <path class="st12" d="M781,224v2c-5.23,3.04-8.93,4.51-15,4,2.7-1.8,5.07-2.93,8.06-4.12.88-.35,1.76-.71,2.66-1.07q2.28-.8,4.28-.8Z"/>
  <path class="st17" d="M620,161q0,3-2.41,5.48c-1.02.91-2.06,1.81-3.09,2.71-.52.46-1.05.93-1.59,1.4-1.3,1.14-2.6,2.28-3.91,3.41q0-3,1.64-4.97c.72-.69,1.43-1.38,2.17-2.09.71-.69,1.42-1.38,2.14-2.1q2.04-1.84,5.04-3.84Z"/>
  <path class="st3" d="M644,314h5c-2.19,2.41-4.26,3.8-7.19,5.19-.72.34-1.43.69-2.17,1.04-.54.25-1.09.51-1.64.77v-2h2v-3h4v-2Z"/>
  <path class="st4" d="M571,370l2,1v5h-5q.38-2.44,1-5l2-1Z"/>
  <path class="st22" d="M629,306h2c-.57,2.87-.86,3.86-3,6-1.99.4-3.99.74-6,1l7-7Z"/>
  <path class="st25" d="M618,304l2,1c-3.63,3.3-7.26,6.6-11,10q0-3,1.97-5.04c.84-.71,1.67-1.42,2.53-2.14.84-.72,1.67-1.43,2.53-2.17.65-.54,1.3-1.09,1.97-1.64Z"/>
  <path class="st13" d="M761,256c-1.46.67-2.92,1.34-4.38,2q-1.22.56-2.46,1.12-2.16.88-4.16.88v-2h2v-2q5.62-1.12,9,0Z"/>
  <path class="st7" d="M566,377c.99.33,1.98.66,3,1l-3,6h-2v-4h2v-3Z"/>
  <path class="st24" d="M815,215c-3.09,2.27-4.42,3.05-8.31,2.69-.89-.23-1.77-.45-2.69-.69,4-2.07,6.56-3.38,11-2Z"/>
  <path class="st14" d="M377,418h3v2c-1.32.33-2.64.66-4,1,.33-.99.66-1.98,1-3Z"/>
  <path class="st19" d="M387,695h5v1h-5v-1Z"/>
  <path class="st14" d="M400,408l3,2c-1.32-.33-2.64-.66-4-1l1-1Z"/>
  <path class="st23" d="M803,715l2,1h-3l1-1Z"/>
  <path class="st19" d="M334,635l3,1-3-1Z"/>
  <path class="st23" d="M835,574l2,1-2,1v-2Z"/>
  <path class="st23" d="M963,545l2,1-2,1v-2Z"/>
  <path class="st23" d="M0,0"/>
  <path class="st23" d="M0,0"/>
  <path class="st23" d="M794,721l2,1-2-1Z"/>
  <path class="st23" d="M797,719l2,1-2-1Z"/>
  <path class="st23" d="M0,0"/>
  <path class="st16" d="M0,0"/>
  <path class="st16" d="M0,0"/>
  <path class="st10" d="M0,0"/>
  <path class="st10" d="M0,0"/>
  <path class="st10" d="M0,0"/>
  <path class="st2" d="M0,0"/>
  <path class="st2" d="M0,0"/>
  <path class="st2" d="M0,0"/>
  <path class="st2" d="M0,0"/>
  <path class="st2" d="M0,0"/>
  <path class="st2" d="M0,0"/>
  <path class="st2" d="M0,0"/>
  <path class="st2" d="M0,0"/>
  <path class="st2" d="M0,0"/>
  <path class="st2" d="M0,0"/>
  <path class="st2" d="M0,0"/>
  <path class="st2" d="M0,0"/>
  <path class="st2" d="M0,0"/>
  <path class="st2" d="M0,0"/>
  <path class="st2" d="M0,0"/>
  <path class="st2" d="M0,0"/>
  <path class="st2" d="M0,0"/>
  <path class="st2" d="M0,0"/>
  <path class="st2" d="M0,0"/>
  <path class="st2" d="M0,0"/>
  <path class="st2" d="M0,0"/>
  <path class="st2" d="M0,0"/>
  <path class="st2" d="M0,0"/>
  <path class="st2" d="M0,0"/>
  <path class="st2" d="M0,0"/>
  <path class="st2" d="M0,0"/>
  <path class="st2" d="M0,0"/>
  <path class="st2" d="M0,0"/>
  <path class="st2" d="M0,0"/>
  <path class="st2" d="M0,0"/>
  <path class="st2" d="M0,0"/>
  <path class="st2" d="M0,0"/>
  <path class="st2" d="M0,0"/>
  <path class="st2" d="M0,0"/>
  <path class="st2" d="M0,0"/>
  <path class="st2" d="M0,0"/>
  <path class="st2" d="M0,0"/>
  <path class="st2" d="M0,0"/>
  <path class="st2" d="M0,0"/>
  <path class="st2" d="M0,0"/>
</svg>