<?xml version="1.0" encoding="UTF-8"?>
<svg id="_レイヤー_1" data-name="レイヤー_1" xmlns="http://www.w3.org/2000/svg" version="1.1" viewBox="0 0 1280 886">
  <!-- Generator: Adobe Illustrator 30.2.1, SVG Export Plug-In . SVG Version: 2.1.1 Build 1)  -->
  <defs>
    <style>
      .st0 {
        fill: #f8e8ed;
      }

      .st1 {
        fill: #adcfcb;
      }

      .st2 {
        fill: #bddfdd;
      }

      .st3 {
        fill: #fdf4e7;
      }

      .st4 {
        fill: #bbe3de;
      }

      .st5 {
        fill: #fbf2e5;
      }

      .st6 {
        fill: #dcf1f0;
      }

      .st7 {
        fill: #dff0f0;
      }

      .st8 {
        fill: #def0ef;
      }

      .st9 {
        fill: #bbdcd6;
      }

      .st10 {
        fill: #fae3eb;
      }

      .st11 {
        fill: #dfefef;
      }

      .st12 {
        fill: #dbf0f0;
      }

      .st13 {
        fill: #dcefef;
      }

      .st14 {
        fill: #fee1eb;
      }

      .st15 {
        fill: #fef6eb;
      }

      .st16 {
        fill: #deefef;
      }

      .st17 {
        fill: #b8d9d5;
      }

      .st18 {
        fill: #b7ddd9;
      }

      .st19 {
        fill: #a2d6d1;
      }

      .st20 {
        fill: #e3f6f5;
      }

      .st21 {
        fill: #dbefee;
      }

      .st22 {
        fill: #a3d2cb;
      }

      .st23 {
        fill: #dbeded;
      }

      .st24 {
        fill: #f9ecdc;
      }

      .st25 {
        fill: #bde2df;
      }

      .st26 {
        fill: #daecee;
      }

      .st27 {
        fill: #deedef;
      }

      .st28 {
        fill: #e8f8f7;
      }

      .st29 {
        fill: #97cfc8;
      }

      .st30 {
        fill: #e0f1ef;
      }

      .st31 {
        fill: #f9fcfe;
      }

      .st32 {
        fill: #f8e9ee;
      }

      .st33 {
        fill: #e5dcf1;
      }

      .st34 {
        fill: #a6dad1;
      }

      .st35 {
        fill: #dbeeee;
      }

      .st36 {
        fill: #e1f3f2;
      }

      .st37 {
        fill: #aed9d4;
      }

      .st38 {
        fill: #acd8d3;
      }

      .st39 {
        fill: #b4d9d9;
      }

      .st40 {
        fill: #aedad4;
      }

      .st41 {
        fill: #d9eeee;
      }

      .st42 {
        fill: #b9ddd9;
      }

      .st43 {
        fill: #ddf1f1;
      }

      .st44 {
        fill: #96d1ca;
      }

      .st45 {
        fill: #ecf9f9;
      }

      .st46 {
        fill: #daf3f0;
      }

      .st47 {
        fill: #ebfbfa;
      }

      .st48 {
        fill: #dceeef;
      }

      .st49 {
        fill: #fef5e7;
      }

      .st50 {
        fill: #b5dddb;
      }

      .st51 {
        fill: #d8ebea;
      }

      .st52 {
        fill: #def2f0;
      }

      .st53 {
        fill: #b3dad7;
      }

      .st54 {
        fill: #b5dcd9;
      }

      .st55 {
        fill: #d6ecec;
      }

      .st56 {
        fill: #bce0dc;
      }

      .st57 {
        fill: #bbded9;
      }

      .st58 {
        fill: #bae0dc;
      }

      .st59 {
        fill: #dbefef;
      }

      .st60 {
        fill: #d8edec;
      }

      .st61 {
        fill: #d3ece9;
      }

      .st62 {
        fill: #f9e5d4;
      }

      .st63 {
        fill: #b3dcd7;
      }

      .st64 {
        fill: #b1dad3;
      }

      .st65 {
        fill: #dcf1f1;
      }

      .st66 {
        fill: #c5e7e6;
      }

      .st67 {
        fill: #ffeddb;
      }

      .st68 {
        fill: #d9edec;
      }

      .st69 {
        fill: #b2d9d6;
      }

      .st70 {
        fill: #d5ebeb;
      }
    </style>
  </defs>
  <path class="st66" d="M878,328c.82.22,1.65.44,2.49.67,20.41,5.49,40.77,12.53,57.95,25.21,2.07,1.49,4.25,2.72,6.49,3.93q1.16.63,2.34,1.27c.57.3,1.14.61,1.72.92v2c.87.19,1.73.37,2.62.56,3.86,1.64,5.21,3.31,7.75,6.52,1.7,2,3.49,3.61,5.5,5.29,4.46,3.8,8.56,7.97,12.12,12.62v2h2c2.63,3.11,4.76,6.61,7,10,.38.55.75,1.1,1.14,1.67,15.87,23.29,23.81,48.58,26.86,76.33.09.81.19,1.62.29,2.45,3.1,27.93-.06,56.73-8.29,83.55-.4,1.36-.79,2.72-1.18,4.07-16.03,54.35-48.47,102.67-87,143.68q-.97,1.03-1.96,2.09-22.11,23.44-28.01,26.15-2.2.93-2.84,4.01c-2.17,1.86-4.35,3.6-6.62,5.31-1.28.98-2.56,1.96-3.84,2.95-.61.47-1.23.94-1.86,1.43-2.04,1.6-3.99,3.28-5.93,5q-2.75,2.31-4.75,2.31v2q-1.84,1.48-4.38,3.19-1.36.92-2.74,1.86c-.95.64-1.9,1.29-2.88,1.95-2.66,1.9-5.32,3.8-7.97,5.71q-2.03,1.29-4.03,1.29v2q-1.84,1.26-4.38,2.69c-3.7,2.14-7.22,4.38-10.69,6.88q-11.87,8.44-15.94,8.44v2c-.98.48-1.96.97-2.97,1.47-6.92,3.43-13.8,6.91-20.59,10.59-11.17,6.02-22.69,11.14-34.44,15.94-2.02.85-4.04,1.71-6.06,2.56-5.59,2.32-11.22,4.45-16.94,6.44-.62.22-1.24.44-1.88.66-18.36,6.41-37.08,11.43-56.12,15.34-.83.17-1.66.35-2.51.52-32.36,6.69-65.87,8.27-98.8,5.6-.98-.08-1.95-.16-2.96-.24-5.14-.47-9.82-1.28-14.73-2.89q.05-1.77,1-4c2.37-1.44,4.61-2.61,7.12-3.75,1.47-.7,2.93-1.4,4.39-2.1.75-.35,1.49-.71,2.26-1.08,3.39-1.64,6.71-3.41,10.03-5.2.63-.34,1.25-.67,1.9-1.02,1.76-.95,3.53-1.9,5.29-2.85q1.34-.72,2.71-1.45c6.03-3.24,11.97-6.64,17.91-10.05.79-.45,1.58-.9,2.39-1.37,4.8-2.77,9.44-5.71,14.02-8.83,2.26-1.5,4.61-2.81,6.98-4.13,13.82-8.16,26.73-18.08,39.38-27.93,1.6-1.24,3.2-2.46,4.82-3.67,5.91-4.47,11.66-9.07,17.29-13.88.58-.49,1.15-.98,1.74-1.49,2.63-2.27,5.11-4.56,7.54-7.05q2.22-2.14,4.22-2.14v-2q5.48-5,8-5c.33-.99.66-1.98,1-3h2q.34-.84.69-1.69c1.67-2.94,3.89-5,6.31-7.31,5.59-5.47,10.93-11.04,16-17q1.23-1.42,2.49-2.86c9.84-11.37,18.6-23.35,26.51-36.14.54-.82,1.08-1.64,1.63-2.49,7.96-12.18,15.24-24.87,20.37-38.51.49-1.24.99-2.48,1.49-3.73,3.66-9.27,6.37-18.55,8.51-28.27.29-1.28.58-2.56.88-3.88,2.79-13.05,3.42-25.8,3.12-39.12q-.03-1.52-.05-3.07c-1.04-22.88-9.08-45.12-21.95-63.93-.65-.95-1.3-1.91-1.96-2.89-5.14-7.29-10.84-14.11-17.3-20.27q-1.73-1.84-1.73-3.84-.8-.34-1.62-.69c-2.1-1.16-3.68-2.33-5.5-3.88q-2.6-2.4-4.88-3.44v-2q-.77-.34-1.56-.69c-3.33-1.79-6.58-3.81-9.44-6.31v-2c-.7-.08-1.39-.16-2.11-.25-3.57-.93-6.16-2.74-9.14-4.82-7.84-5.25-16.15-9.1-24.75-12.94-2.1-.96-4.21-1.92-6.31-2.88-.82-.37-1.64-.74-2.49-1.12-1.45-.66-2.88-1.36-4.29-2.1-2.57-1.22-5.11-1.52-7.91-1.91v-2q-.84-.18-1.69-.37c-5.13-1.13-10.22-2.34-15.31-3.63-.33.66-.66,1.32-1,2,.71.12,1.43.24,2.16.36,2.96.66,5.49,1.63,8.28,2.82,1.04.44,2.08.89,3.15,1.35q1.69.73,3.41,1.46c1.25.52,2.5,1.04,3.75,1.56,1.25.52,2.5,1.04,3.75,1.57l3.47,1.45c2.69,1.27,4.68,2.65,7.03,4.43,1.66.68,3.33,1.35,5,2,2.27,1.22,4.52,2.46,6.75,3.75.61.35,1.23.71,1.86,1.07,4.94,2.86,9.7,5.93,14.39,9.18.99.66,1.98,1.32,3,2v2q1.1.38,2.22.76c2.98,1.33,4.83,2.83,7.21,5.05,2.56,2.35,5.11,4.68,7.81,6.88,4.45,3.74,8.14,7.77,11.75,12.31.62.59,1.24,1.18,1.88,1.79,4.05,4.21,6.96,9.32,10.12,14.21q.67.99,1.35,2c8.98,13.64,15.08,28.94,18.9,44.75.16.67.33,1.35.5,2.04,6.86,30.09,1.3,63.84-9.75,92.21-.31.8-.62,1.59-.94,2.42-4.25,10.72-9.04,20.74-15.06,30.58-.63,1.05-1.25,2.1-1.89,3.19-7.53,12.51-15.72,24.63-25.11,35.81-.83,1-1.66,2.01-2.52,3.04-8.08,9.7-16.53,19.06-25.48,27.96-1.02,1.04-2.03,2.07-3.04,3.11-1.05,1.07-2.1,2.13-3.14,3.2-.53.55-1.07,1.1-1.62,1.67-1.36,1.38-2.78,2.7-4.2,4.02h-2v2q-5.48,5-8,5v2q-1.68,1.73-3.88,3.62-1.08.95-2.18,1.91-1.95,1.46-3.95,1.46v2q-1.69,1.26-4,2.69c-4.06,2.61-7.58,5.49-11.16,8.71-2.45,2.13-5.12,3.84-7.84,5.6-.85.68-1.69,1.36-2.56,2.06q-6.21,4.94-9.44,4.94v2c-2.3,1.69-4.6,3.27-7,4.81-.69.45-1.37.9-2.08,1.36-1.36.88-2.72,1.77-4.09,2.64-1.5.97-2.99,1.96-4.47,2.96-3.49,2.31-5.07,3.23-9.36,3.23.66-1.65,1.32-3.3,2-5h2v-2q1.65-1.41,3.94-3.06c5.8-4.38,11.43-9.28,15.7-15.21.45-.57.9-1.14,1.37-1.73h2c.23-.55.46-1.1.7-1.67,1.66-2.97,3.77-5.12,6.11-7.58,3.1-3.33,5.86-6.52,8.19-10.44q.99-1.64,2-3.31h2c.24-.52.48-1.04.72-1.58,1.68-3.19,3.7-6.13,5.71-9.11.9-1.34,1.8-2.69,2.7-4.03.47-.7.94-1.4,1.42-2.12,6.78-10.14,13.22-20.11,18.44-31.16.99-1.99,2-3.98,3.01-5.97,28.96-57.33,40.86-126.78,20.75-188.9-8.72-26.29-21.54-53.81-42.43-72.75q-1.33-1.38-1.33-3.38h-2c-1.71-1.63-3.37-3.3-5-5-8.17-7.91-16.95-15.68-27.32-20.57q-2.68-1.43-3.68-4.43c.33-.66.66-1.32,1-2-9.93-2.32-19.82-3.88-29.94-5.06-2.05-.24-4.09-.48-6.14-.73-1.84-.22-3.67-.44-5.51-.66-3.62-.58-6.92-1.47-10.42-2.55,1.67-6.32,6.42-9.43,11.77-12.68q8.02-4.48,12.23-5.32v-2c8.26-4.5,16.57-8.84,25-13,1.42-.71,2.83-1.42,4.25-2.12.58-.29,1.17-.58,1.77-.88,1.26-.63,2.53-1.27,3.78-1.92,4.94-2.51,9.96-4.76,15.07-6.89.82-.34,1.65-.69,2.49-1.04,21.83-9.08,43.67-16.45,66.63-22.15q1.45-.36,2.93-.73c2.81-.7,5.63-1.39,8.45-2.08.84-.21,1.67-.41,2.54-.63,4.75-1.14,9.39-1.91,14.26-2.32q1.92-.15,3.83-1.24c39.98-7.8,84.71-6.79,124,4ZM772.94,332.41q-1.06.05-2.14.1c-6.15.37-11.94,1.66-17.8,3.49.33.66.66,1.32,1,2q2.81.5,6.25.71c1.33.11,2.66.22,3.99.33q1.06.08,2.13.16c20.29,1.59,40.17,4.22,59.68,10.2,1.83.56,3.68,1.09,5.52,1.62,26,7.63,50.77,20.84,72.43,36.97,1.36,1,2.72,2,4.07,3,1.43,1.06,2.87,2.12,4.3,3.19.68.5,1.36,1,2.06,1.51,3,2.24,5.82,4.46,8.42,7.16q1.88,2.37,4.15,2.14v2q1.48,1.5,3.44,3.06c19.58,16.72,34.39,38.43,46.56,60.94.37.68.74,1.37,1.12,2.07,5.85,10.94,10.44,22.36,14.88,33.93h3c8.4-27.48.1-63.43-12.81-88.36-5.63-10.38-12.12-19.98-20.25-28.57q-1.94-2.06-4.32-5.12c-13.76-15.4-35.42-29.49-55.02-35.98q-2.61-.96-5.52-2.44c-3.16-1.55-6.21-2.59-9.58-3.58q-6.3-1.87-9.31-2.92c-3.13-1-6.16-1.68-9.39-2.27-1.14-.21-2.29-.43-3.47-.65-1.18-.22-2.36-.43-3.58-.66-2.36-.44-4.72-.87-7.08-1.32-1.04-.19-2.08-.38-3.15-.58q-2.52-.54-4.52-1.54c-2.38-.24-4.74-.42-7.13-.55-.75-.04-1.49-.08-2.26-.13-9.47-.48-18.94-.47-28.41-.45-3.13,0-6.26,0-9.38,0-9.3,0-18.58.07-27.87.55Z"/>
  <path class="st44" d="M630,410l8,1v2h6v2c1.11-.08,2.23-.16,3.38-.25,4.48,0,7.78,1.33,11.85,3.11,3.09,1.27,6.2,2.21,9.4,3.14,4.45,1.33,8.45,2.85,12.54,5.06,1.99,1.01,3.99,1.76,6.09,2.5,3.04,1.09,5.21,2.42,7.75,4.44.72.28,1.45.56,2.19.86,3.35,1.37,6.43,3.09,9.56,4.89.61.35,1.23.71,1.86,1.07,4.94,2.86,9.7,5.93,14.39,9.18q1.49.99,3,2v2q1.1.38,2.22.76c2.98,1.33,4.83,2.83,7.21,5.05,2.56,2.35,5.11,4.68,7.81,6.88,4.45,3.74,8.14,7.77,11.75,12.31q.93.89,1.88,1.79c4.05,4.21,6.96,9.32,10.12,14.21q.67.99,1.35,2c8.98,13.64,15.08,28.94,18.9,44.75.16.67.33,1.35.5,2.04,6.86,30.09,1.3,63.84-9.75,92.21-.31.8-.62,1.59-.94,2.42-4.25,10.72-9.04,20.74-15.06,30.58-.63,1.05-1.25,2.1-1.89,3.19-7.53,12.51-15.72,24.63-25.11,35.81-.83,1-1.66,2.01-2.52,3.04-8.08,9.7-16.53,19.06-25.48,27.96-1.02,1.04-2.03,2.07-3.04,3.11-1.05,1.07-2.1,2.13-3.14,3.2-.53.55-1.07,1.1-1.62,1.67-1.36,1.38-2.78,2.7-4.2,4.02h-2v2q-5.48,5-8,5v2q-1.68,1.73-3.88,3.62-1.08.95-2.18,1.91-1.95,1.46-3.95,1.46v2q-1.69,1.26-4,2.69c-4.06,2.61-7.58,5.49-11.16,8.71-2.45,2.13-5.12,3.84-7.84,5.6-.85.68-1.69,1.36-2.56,2.06q-6.21,4.94-9.44,4.94v2c-2.3,1.69-4.6,3.27-7,4.81-.69.45-1.37.9-2.08,1.36-1.36.88-2.72,1.77-4.09,2.64-1.5.97-2.99,1.96-4.47,2.96-3.49,2.31-5.07,3.23-9.36,3.23.66-1.65,1.32-3.3,2-5h2v-2q1.65-1.41,3.94-3.06c5.8-4.38,11.43-9.28,15.7-15.21.45-.57.9-1.14,1.37-1.73h2c.23-.55.46-1.1.7-1.67,1.66-2.97,3.77-5.12,6.11-7.58,3.1-3.33,5.86-6.52,8.19-10.44q.99-1.64,2-3.31h2c.24-.52.48-1.04.72-1.58,1.68-3.19,3.7-6.13,5.71-9.11.9-1.34,1.8-2.69,2.7-4.03.47-.7.94-1.4,1.42-2.12,6.78-10.14,13.22-20.11,18.44-31.16.99-1.99,2-3.98,3.01-5.97,28.96-57.33,40.86-126.78,20.75-188.9-8.72-26.29-21.54-53.81-42.43-72.75q-1.33-1.38-1.33-3.38h-2c-1.71-1.63-3.37-3.3-5-5-8.17-7.91-16.95-15.68-27.32-20.57q-2.68-1.43-3.68-4.43Z"/>
  <path class="st19" d="M657,759h2c-.27.5-.54.99-.81,1.5-1.63,3.42-2.88,6.94-4.19,10.5,2.31,2.46,3.67,3.37,7,4,.99.33,1.98.66,3,1-.47.35-.95.7-1.43,1.07-3.79,2.83-7.54,5.69-11.25,8.62q-8.1,6.31-11.31,6.31v2c-2.3,1.69-4.6,3.27-7,4.81-.69.45-1.37.9-2.08,1.36-1.36.88-2.72,1.77-4.09,2.64-1.5.97-2.99,1.96-4.47,2.96-3.49,2.31-5.07,3.23-9.36,3.23.66-1.65,1.32-3.3,2-5h2v-2q1.65-1.41,3.94-3.06c5.8-4.38,11.43-9.28,15.7-15.21.45-.57.9-1.14,1.37-1.73h2c.23-.55.46-1.1.7-1.67,1.66-2.97,3.77-5.12,6.11-7.58,3.1-3.33,5.86-6.52,8.19-10.44.66-1.09,1.32-2.19,2-3.31Z"/>
  <path class="st43" d="M763.13,331.89c.92,0,1.83.01,2.78.02q1.48,0,3,0c1.04,0,2.08.02,3.15.03q1.57,0,3.17.01c2.59.01,5.18.03,7.77.05v1c-1.18.05-2.37.1-3.59.15q-13.55-.41-25.41,3.85,1.35.12,2.73.24c3.41.31,6.82.62,10.23.93,1.46.13,2.93.27,4.39.4,9.28.83,18.46,1.88,27.65,3.43v1c-5.34.22-10.32,0-15.57-1-8.43-1.35-16.81-1.27-25.33-1.21-2.75.02-5.5.02-8.25.02-1.75,0-3.51.01-5.26.02-.82,0-1.64,0-2.48,0-3.29.03-5.97.12-9.11,1.16-2.55.07-5.08,0-7.62-.06q-2.53-.05-5.38,1.06v-2c10.55-3.5,20.86-5.44,32-5v-2c2.05-.23,4.1-.46,6.15-.68,2.32-.4,2.54-1.3,4.98-1.43Z"/>
  <path class="st28" d="M621,405h9v2c.87.12,1.74.24,2.63.37,1.15.17,2.3.34,3.49.51,1.14.16,2.27.32,3.45.49,3.29.61,6.26,1.57,9.43,2.63q2.24.33,4.38.44c4.59.43,8.41,1.77,12.62,3.56.99.39,1.98.78,3,1.19.66.27,1.32.54,2,.81-2.55,1.27-3.43.8-6.12.06-.72-.19-1.45-.39-2.2-.59-.55-.16-1.11-.31-1.68-.47-.33.66-.66,1.32-1,2q2.47.49,5,1c-3.64,1.21-4.3.67-7.69-.88-4.54-1.93-8.4-2.76-13.31-3.12v-2h-6v-2c-2.31-.33-4.62-.66-7-1v-2c-3.3-.66-6.6-1.32-10-2v-1Z"/>
  <path class="st22" d="M630,410l8,1v2h6v2c1.24-.04,2.48-.08,3.75-.12,3.27-.01,5.46.27,8.25,2.12v1h-7v-2h-5v2h3c.99,1.98,1.98,3.96,3,6-4.37-1.37-7.44-3.77-11-6.55q-2.15-1.65-5.44-3.14-2.56-1.31-3.56-4.31Z"/>
  <path class="st45" d="M763.13,331.89c.92,0,1.83.01,2.78.02q1.48,0,3,0c1.04,0,2.08.02,3.15.03q1.57,0,3.17.01c2.59.01,5.18.03,7.77.05v1c-1.18.05-2.37.1-3.59.15q-13.55-.41-25.41,3.85c2.64.33,5.28.66,8,1v1h-28v-1c6.15-1.82,11.6-2.24,18-2v-2c2.05-.23,4.1-.46,6.15-.68,2.32-.4,2.54-1.3,4.98-1.43Z"/>
  <path class="st20" d="M824.81,329.91q1.93-.01,3.89-.02c2.69.09,4.74.37,7.29,1.12,2.41.22,4.83.41,7.25.56,1.26.08,2.53.17,3.83.25.96.06,1.93.12,2.92.18v2c-1.09-.07-2.17-.13-3.29-.2-13.46-.78-26.92-1.11-40.4-1.36-2.18-.04-4.36-.09-6.53-.13-5.26-.11-10.52-.21-15.78-.31v-1c4.26-.15,8.53-.29,12.79-.43,1.44-.05,2.89-.1,4.33-.15,7.9-.27,15.79-.48,23.69-.52Z"/>
  <path class="st8" d="M848,322v1c-.7-.03-1.39-.06-2.11-.09-19.71-.84-39.36-1.4-59.07-.47-.83.04-1.66.08-2.52.12q-4.23.19-8.35,1.09-1.94.36-4.94-1.64c4.68-1.13,9.33-1.34,14.12-1.56.91-.04,1.82-.08,2.75-.13q44.95-1.85,60.12,1.69Z"/>
  <path class="st61" d="M627,794c0,3.11-.54,4.35-2,7,1.65-.33,3.3-.66,5-1-2.9,2.45-5.89,4.67-9.06,6.75q-.98.64-1.97,1.3-1.96.95-5.96.95c.66-1.65,1.32-3.3,2-5h2v-2q1.93-1.69,4.44-3.56,2.89-2.09,5.56-4.44Z"/>
  <path class="st42" d="M787,546c4.53,6.8,3.16,16.95,3.12,24.88,0,1.05,0,2.1,0,3.19-.04,7.02-.26,13.96-1.12,20.94h-1c-.78-8.97-1.03-17.62-.34-26.6.52-7.52,0-14.9-.66-22.4Z"/>
  <path class="st38" d="M635,786l1,4c-.99.33-1.98.66-3,1-.33.99-.66,1.98-1,3h2c.66.33,1.32.66,2,1v-2c1.32-.33,2.64-.66,4-1v2c-4.5,3.77-9.01,6.69-15,7,.97-6.32,5.53-10.78,10-15Z"/>
  <path class="st29" d="M639,783l3,3-1,1c1.32.33,2.64.66,4,1h-2v2h-3c-.33.99-.66,1.98-1,3h-3v2c-1.98.33-3.96.66-6,1v-2h2c.12-.62.25-1.24.38-1.88q.62-2.12,2.62-4.12c.33-.66.66-1.32,1-2h2c.33-.99.66-1.98,1-3Z"/>
  <path class="st37" d="M748,472c6.49,2.65,10.18,8.43,14,14l-1,2c-.6-.19-1.2-.37-1.81-.56q-2.35-.66-5.19.56.88-5.75,2-8c-1.98-.66-3.96-1.32-6-2-.33.66-.66,1.32-1,2,.02-.76.04-1.53.06-2.31q.07-2.79-1.06-5.69Z"/>
  <path class="st60" d="M997,499h1c1,6.33,1.33,11.91-1,18-.66.33-1.32.66-2,1v-6h-2c-.66-2.97-1.32-5.94-2-9,.66,1.32,1.32,2.64,2,4h3l1-8Z"/>
  <path class="st18" d="M664,776c-4.95,3.74-9.94,7.41-15,11,.33-2.31.66-4.62,1-7h6v-4c3.29-.8,4.71-1.1,8,0Z"/>
  <path class="st68" d="M733,329v2c-4.67,2.33-7.83,3.21-13.02,2.97-3.13.05-5.99,1.17-8.98,2.03q-2.2-.44-4-1,22.11-6,26-6Z"/>
  <path class="st36" d="M945,425c4.27,3.11,7.2,6.56,10.31,10.75.45.6.91,1.2,1.38,1.82,1.11,1.47,2.21,2.95,3.31,4.43l-1,2q-3-2-4-5l-2-1c-.47-.82-.95-1.65-1.44-2.5q-1.38-2.79-4.56-3.5-1.19-3.56-2-7Z"/>
  <path class="st9" d="M630,410l8,1v2h6l-4,1c.99.99,1.98,1.98,3,3l-1,2c-1.82-.93-3.63-1.87-5.44-2.81-1.01-.52-2.02-1.04-3.06-1.58q-2.5-1.61-3.5-4.61Z"/>
  <path class="st0" d="M914.26,199.56c-.41.14-.82.28-1.26.44v1.38c2-.68,3.99-1.37,5.96-2.12-1.57.09-3.13.19-4.7.3Z"/>
  <path class="st53" d="M716,635c2.16,7.26-.05,14.27-3,21-.66.66-1.32,1.32-2,2,.65-7.91,2.87-15.39,5-23Z"/>
  <path class="st34" d="M704,494h2v2h4c.22,1.62.43,3.25.62,4.88.12.9.23,1.81.35,2.74,0,.79.02,1.57.02,2.38-.66.66-1.32,1.32-2,2-1.65-4.62-3.3-9.24-5-14Z"/>
  <path class="st50" d="M704,438c3.6,1.32,6.64,2.92,9.81,5.06q1.19.79,2.39,1.6c.59.44,1.18.88,1.79,1.34v1h-9c1.32-.66,2.64-1.32,4-2q-2.97-.49-6-1v-2c-.99-.33-1.98-.66-3-1v-3Z"/>
  <path class="st16" d="M595,384l2,1c-.49.34-.99.68-1.5,1.02-.64.45-1.28.89-1.94,1.35-.64.44-1.28.88-1.93,1.34q-1.77,1.21-2.63,3.29h-2v2c-.78.31-1.57.62-2.38.94q-2.55.99-4.62,2.06c2.39-6.45,9.15-10.07,15-13Z"/>
  <path class="st1" d="M624,802l-1,2h-3c-.33,1.32-.66,2.64-1,4-1.98.33-3.96.66-6,1,.99-3.65,1.69-4.8,4.94-6.88q3.06-1.12,6.06-.12Z"/>
  <path class="st68" d="M770,323l-2,3c-2.79.22-5.35.28-8.12.19-.75-.01-1.51-.03-2.29-.04-1.86-.04-3.73-.09-5.59-.15,2.43-2.43,3.4-2.35,6.75-2.62.89-.07,1.78-.15,2.7-.22,2.86-.17,5.69-.23,8.55-.15Z"/>
  <path class="st39" d="M668,440h5c.66,1.98,1.32,3.96,2,6h2c-.33,1.32-.66,2.64-1,4-1.34-1.29-2.67-2.58-4-3.88q-1.11-1.08-2.25-2.18-1.75-1.95-1.75-3.95Z"/>
  <path class="st54" d="M677,763l2,1q-1.98.99-4,2v2c-2.31,1.32-4.62,2.64-7,4v-4h2v-2c2.3-1.07,4.64-2.06,7-3Z"/>
  <path class="st63" d="M701,684c1.02,4.09,1.08,6,0,10q-2.06,2.38-4,4c-.66-.33-1.32-.66-2-1,1.98-4.29,3.96-8.58,6-13Z"/>
  <path class="st59" d="M626,368v2c-4.66,3.83-9.11,5.01-15,6,3.92-3.43,9.52-8,15-8Z"/>
  <path class="st65" d="M673,347c-.33.99-.66,1.98-1,3q-2,.88-4.56,1.56c-.9.24-1.79.49-2.71.74-.9.23-1.8.46-2.72.7-.81.21-1.61.42-2.44.63-1.85.47-3.7.92-5.56,1.37,1.69-3.38,5.55-3.9,8.94-5.12.74-.28,1.48-.55,2.25-.84q5.53-2.04,7.81-2.04Z"/>
  <path class="st13" d="M577,837l2,1c-.99.33-1.98.66-3,1-.33.99-.66,1.98-1,3h-2v2h-7c2.15-2.35,4.22-3.82,7.06-5.25.69-.36,1.38-.71,2.1-1.08.61-.22,1.21-.44,1.84-.67Z"/>
  <path class="st65" d="M980,618c.99.33,1.98.66,3,1-1.76,4.97-4.39,9.43-7,14-.33-1.32-.66-2.64-1-4h2c.66-2.31,1.32-4.62,2-7h2l-1-4Z"/>
  <path class="st30" d="M1009,544c1.36,4.08.14,7.18-.94,11.19-.2.75-.39,1.5-.59,2.27-.48,1.85-.98,3.7-1.47,5.54h-1c-.33-2.64-.66-5.28-1-8,.99-.33,1.98-.66,3-1,.66-3.3,1.32-6.6,2-10Z"/>
  <path class="st31" d="M639,410h8c.33,1.32.66,2.64,1,4-2.64-.33-5.28-.66-8-1-.33-.99-.66-1.98-1-3Z"/>
  <path class="st2" d="M748,472c3.82,1.56,6.29,3.92,9,7v3q-3.47-1.98-7-4c-.33.66-.66,1.32-1,2,.02-.76.04-1.53.06-2.31q.07-2.79-1.06-5.69Z"/>
  <path class="st64" d="M690,465h2v4c.66.33,1.32.66,2,1v3h2c.33,1.98.66,3.96,1,6-2.73-2.41-4.12-4.92-5.69-8.19-.44-.9-.87-1.8-1.32-2.73-.33-.69-.65-1.37-.99-2.08l1-1Z"/>
  <path class="st26" d="M995,453c2.03,3.05,2.54,4.83,3.19,8.38.18.94.36,1.87.54,2.84.28,2.86-.02,5.02-.73,7.79h-1c-.66-6.27-1.32-12.54-2-19Z"/>
  <path class="st21" d="M688,342v2c-4.8,2.4-9.73,2.61-15,3,2.62-1.75,4.56-2.65,7.5-3.62.77-.26,1.55-.52,2.34-.79q2.16-.59,5.16-.59Z"/>
  <path class="st17" d="M748,684h3c-1.65,3.58-3.78,6.75-6,10-.33-1.32-.66-2.64-1-4h2c.14-.8.29-1.61.44-2.44q.56-2.56,1.56-3.56Z"/>
  <path class="st47" d="M991,503l2,4h3v9c-.33-1.32-.66-2.64-1-4h-2c-.66-2.97-1.32-5.94-2-9Z"/>
  <path class="st48" d="M690.75,843.88c.8.02,1.6.04,2.42.05.6.02,1.21.05,1.83.07-3.15,2.1-5.01,2.52-8.69,3.12q-1.49.25-3.01.51c-.76.12-1.52.24-2.3.37,2.01-4.01,5.6-4.25,9.75-4.12Z"/>
  <path class="st35" d="M994,590h2c-.61,4.13-2.04,7.33-4,11-1.11-3.33-.84-5.62,0-9h2v-2Z"/>
  <path class="st11" d="M842,355c4.84.99,9.48,1.96,14,4v1h-7v-2c-.97-.12-1.94-.25-2.94-.38-1.01-.21-2.02-.41-3.06-.62l-1-2Z"/>
  <path class="st12" d="M840,778q-4.95,2.97-10,6,0-3,1.25-4.62c3.13-2.46,4.99-2.63,8.75-1.38Z"/>
  <path class="st69" d="M684,752h2v2h2v-2c.99.33,1.98.66,3,1-1.29,1.38-2.63,2.71-4,4h-2c-.33.66-.66,1.32-1,2v-7Z"/>
  <path class="st68" d="M934,688c.99.33,1.98.66,3,1q-2.97,3.96-6,8c-.66-.33-1.32-.66-2-1q.81-2.44,2-5c.99-.33,1.98-.66,3-1v-2Z"/>
  <path class="st6" d="M719,735q0,3-2.25,5.56c-2.27,2.01-3.98,3.31-6.75,4.44l1-3h2c.25-.6.49-1.2.75-1.81,1.41-2.47,2.9-3.62,5.25-5.19Z"/>
  <path class="st56" d="M696,744c.99.66,1.98,1.32,3,2-1.29,1.38-2.63,2.71-4,4h-2v2c-.66-.33-1.32-.66-2-1v-3h4l1-4Z"/>
  <path class="st51" d="M881,740h5c-1.25,3.74-2.63,4.19-6,6,.33-1.98.66-3.96,1-6Z"/>
  <path class="st55" d="M940,680q2.19.31,4,1c-1.65,1.98-3.3,3.96-5,6-.66-1.32-1.32-2.64-2-4q1.25-1.56,3-3Z"/>
  <path class="st23" d="M965,392l4,1v3c.99.33,1.98.66,3,1-.33,1.32-.66,2.64-1,4-1-1.31-2-2.62-3-3.94-.56-.73-1.11-1.46-1.69-2.21q-1.31-1.85-1.31-2.85Z"/>
  <path class="st35" d="M687,764c0,3.91-1.51,5.12-4,8-1.32-.33-2.64-.66-4-1,2.64-2.31,5.28-4.62,8-7Z"/>
  <path class="st46" d="M776,659q1,3,.29,4.79c-.36.61-.73,1.21-1.11,1.84-.36.61-.71,1.22-1.08,1.85q-1.11,1.52-3.11,2.52c1.23-4.05,2.7-7.44,5-11Z"/>
  <path class="st40" d="M697,480q2.44.69,5,2,.81,2.62,1,5l-2,1-4-8Z"/>
  <path class="st41" d="M945,425q4.8,3.45,5.81,6.25c.06.58.12,1.16.19,1.75-1.32-.33-2.64-.66-4-1-.66-2.31-1.32-4.62-2-7Z"/>
  <path class="st27" d="M886,376c4.36,1.16,6.65,2.08,9,6-2.64-.66-5.28-1.32-8-2l-1-4Z"/>
  <path class="st4" d="M639,792l1,2q-5.75,4-8,4c-.33-.99-.66-1.98-1-3,.99-.33,1.98-.66,3-1,.66.33,1.32.66,2,1v-2c.99-.33,1.98-.66,3-1Z"/>
  <path class="st70" d="M615,804h2v3c.66.33,1.32.66,2,1-1.98.33-3.96.66-6,1,.66-1.65,1.32-3.3,2-5Z"/>
  <path class="st57" d="M645,775c0,2.62-.31,4.51-1,7h-4c1.29-2.88,2.66-4.87,5-7Z"/>
  <path class="st25" d="M647,418l3,6c-3.65-1.25-4.78-1.67-7-5q2-1,4-1Z"/>
  <path class="st33" d="M434.63,313.89c-.1-.3-.2-.59-.3-.89-1.35,1.75-2.67,3.53-3.95,5.33,1.42-1.48,2.83-2.96,4.25-4.45Z"/>
  <path class="st7" d="M740,711l1,4c-1.65,1.32-3.3,2.64-5,4-.66-.33-1.32-.66-2-1,1.98-2.31,3.96-4.62,6-7Z"/>
  <path class="st69" d="M721,716h6c-1.65,1.65-3.3,3.3-5,5-.33-1.65-.66-3.3-1-5Z"/>
  <path class="st52" d="M918,708q0,3-1.31,4.39c-1.56,1.2-3.12,2.41-4.69,3.61q1.48-5.66,4.12-7.38.93-.31,1.88-.62Z"/>
  <path class="st58" d="M740,697l2,1c-1.3,2.02-2.64,4.02-4,6h-1v-6c.99-.33,1.98-.66,3-1Z"/>
  <path class="st24" d="M596,457c-.23-.12-.43-.22-.62-.31-1.04.32-2.2.3-3.38-.16v1.47c1.36-.34,2.68-.67,4-1Z"/>
  <path class="st49" d="M497,591l2,1q-1.98.99-4,2c.66-.99,1.32-1.98,2-3Z"/>
  <path class="st32" d="M539,382c.99.33,1.98.66,3,1-.99.33-1.98.66-3,1v-2Z"/>
  <path class="st15" d="M501,588l2,1h-3l1-1Z"/>
  <path class="st3" d="M504,586l2,1h-3l1-1Z"/>
  <path class="st5" d="M508,582c.99.33,1.98.66,3,1-.99.33-1.98.66-3,1v-2Z"/>
  <path class="st62" d="M0,0"/>
  <path class="st67" d="M516,576l2,1-2-1Z"/>
  <path class="st67" d="M0,0"/>
  <path class="st67" d="M0,0"/>
  <path class="st67" d="M0,0"/>
  <path class="st14" d="M0,0"/>
  <path class="st10" d="M0,0"/>
  <path class="st10" d="M0,0"/>
  <path class="st10" d="M0,0"/>
  <path class="st10" d="M0,0"/>
  <path class="st10" d="M0,0"/>
  <path class="st10" d="M0,0"/>
  <path class="st10" d="M0,0"/>
  <path class="st10" d="M0,0"/>
  <path class="st10" d="M0,0"/>
  <path class="st10" d="M0,0"/>
  <path class="st10" d="M0,0"/>
  <path class="st10" d="M0,0"/>
  <path class="st10" d="M0,0"/>
  <path class="st10" d="M0,0"/>
  <path class="st10" d="M0,0"/>
  <path class="st10" d="M0,0"/>
  <path class="st10" d="M0,0"/>
  <path class="st10" d="M0,0"/>
  <path class="st10" d="M0,0"/>
  <path class="st10" d="M0,0"/>
  <path class="st10" d="M0,0"/>
  <path class="st10" d="M0,0"/>
  <path class="st10" d="M0,0"/>
  <path class="st10" d="M0,0"/>
  <path class="st10" d="M0,0"/>
  <path class="st10" d="M0,0"/>
  <path class="st10" d="M0,0"/>
  <path class="st10" d="M0,0"/>
  <path class="st10" d="M0,0"/>
  <path class="st10" d="M0,0"/>
  <path class="st10" d="M0,0"/>
  <path class="st10" d="M0,0"/>
  <path class="st10" d="M0,0"/>
  <path class="st10" d="M0,0"/>
  <path class="st10" d="M0,0"/>
  <path class="st10" d="M0,0"/>
  <path class="st10" d="M0,0"/>
  <path class="st10" d="M0,0"/>
  <path class="st10" d="M0,0"/>
  <path class="st10" d="M0,0"/>
  <path class="st10" d="M0,0"/>
  <path class="st10" d="M0,0"/>
  <path class="st10" d="M0,0"/>
  <path class="st10" d="M0,0"/>
</svg>