<?xml version="1.0" encoding="UTF-8"?>
<svg id="_レイヤー_1" data-name="レイヤー_1" xmlns="http://www.w3.org/2000/svg" version="1.1" viewBox="0 0 1280 886">
  <!-- Generator: Adobe Illustrator 30.2.1, SVG Export Plug-In . SVG Version: 2.1.1 Build 1)  -->
  <defs>
    <style>
      .st0 {
        fill: #f9ead9;
      }

      .st1 {
        fill: #fcf0e3;
      }

      .st2 {
        fill: #eeddca;
      }

      .st3 {
        fill: #ede8f2;
      }

      .st4 {
        fill: #f9e9d9;
      }

      .st5 {
        fill: #faecde;
      }

      .st6 {
        fill: #fbefe2;
      }

      .st7 {
        fill: #f5e3d0;
      }

      .st8 {
        fill: #fbecd7;
      }

      .st9 {
        fill: #ebd7c4;
      }

      .st10 {
        fill: #fdf3e7;
      }

      .st11 {
        fill: #f9ebdb;
      }

      .st12 {
        fill: #e8ceb5;
      }

      .st13 {
        fill: #f6e1ce;
      }

      .st14 {
        fill: #fdf6ec;
      }

      .st15 {
        fill: #debfa6;
      }

      .st16 {
        fill: #fcf0e4;
      }

      .st17 {
        fill: #f8e6d5;
      }

      .st18 {
        fill: #f8e5d4;
      }

      .st19 {
        fill: #f9ecde;
      }

      .st20 {
        fill: #faead9;
      }

      .st21 {
        fill: #faeddf;
      }

      .st22 {
        fill: #fbe9dc;
      }

      .st23 {
        fill: #ebd4bd;
      }

      .st24 {
        fill: #ecd7c1;
      }

      .st25 {
        fill: #f9ebdc;
      }

      .st26 {
        fill: #ecd3bb;
      }

      .st27 {
        fill: #fbdec3;
      }

      .st28 {
        fill: #faede0;
      }

      .st29 {
        fill: #ecd7c3;
      }

      .st30 {
        fill: #ead3bc;
      }

      .st31 {
        fill: #f5e3d1;
      }

      .st32 {
        fill: #f8e7d6;
      }

      .st33 {
        fill: #fdf4e9;
      }

      .st34 {
        fill: #fbf0e3;
      }

      .st35 {
        fill: #fbf5eb;
      }

      .st36 {
        fill: #f8ead9;
      }

      .st37 {
        fill: #fceedf;
      }

      .st38 {
        fill: #faebdb;
      }

      .st39 {
        fill: #e5be99;
      }

      .st40 {
        fill: #e5ba95;
      }

      .st41 {
        fill: #fbf2e8;
      }

      .st42 {
        fill: #f6e8da;
      }

      .st43 {
        fill: #f7e6d5;
      }

      .st44 {
        fill: #c5e7e6;
      }

      .st45 {
        fill: #fbddc1;
      }

      .st46 {
        fill: #eae4f0;
      }
    </style>
  </defs>
  <path class="st45" d="M556,432c21.04,3.19,42.23,24.71,54.75,40.88,10.23,14.27,17.62,29.01,22.56,45.88.25.86.51,1.73.77,2.62,8.54,30.49,2.16,64.49-13.01,91.79-16.44,28.25-43.05,51.16-73.74,62.56q-3.29,1.18-6,2.76c-13.21,6.05-29.88,8.47-44.34,8.53-.9.01-1.81.02-2.74.04-7.09.1-14.17.07-21.26-.04q-1.83-.03-3.69-.05c-23.95-1.09-51.74-11.17-71.31-24.95-.59-.4-1.17-.8-1.77-1.22-1.88-1.29-3.74-2.6-5.6-3.91-.64-.44-1.28-.88-1.94-1.34-1.6-1.13-3.15-2.33-4.68-3.54v-2q-.89-.42-1.8-.85c-7.76-4.07-12.89-11.41-18.2-18.15-.7-.86-1.41-1.72-2.13-2.6-2.33-2.99-4.05-6.08-5.87-9.4,3.82-1.27,6.68-.44,10.5.38,19.25,4.08,40.17,4.16,59.5.62,1.15-.18,2.31-.37,3.5-.55,14.92-2.61,30.02-7.51,43.5-14.45.58-.3,1.16-.59,1.76-.89,10.54-5.4,20.19-11.28,29.4-18.79q1.85-1.32,3.85-1.32v-2c1.42-.96,2.84-1.91,4.28-2.83,2.91-1.99,5.35-4.43,7.84-6.92.56-.56,1.11-1.12,1.69-1.69,6.46-6.64,11.84-14.02,17.19-21.56.59-.81,1.19-1.62,1.8-2.45,4.96-7,8.53-14.82,12.2-22.55.56-1.16,1.12-2.32,1.7-3.51,13.21-28.71,11.07-59.17,1.3-88.49Z"/>
  <path class="st27" d="M324,604c2.73.35,3.78.75,5.61,2.86.52.81,1.04,1.62,1.58,2.45,6,8.97,12.37,17.45,19.69,25.38,1.95,2.12,3.82,4.3,5.68,6.5,3.5,4.01,7.35,7.42,11.44,10.81.92.77,1.83,1.54,2.78,2.33q5.3,4.47,11.05,8.31,1.07.67,2.17,1.36v2l6,2v2c.82.23,1.65.45,2.5.69,3.47,1.3,6.16,2.9,9.25,4.89,28.81,18.15,68.6,31.22,102.69,23.73,6.37-1.5,12.33-3.58,18.28-6.36q2.29-.95,5.29-.95-.06,2.19-1,5c-5.12,4.36-10.94,7.14-17,10-.66.34-1.33.68-2.01,1.03-11.99,5.86-25.39,8.76-38.67,8.93-2.63.04-5.25.16-7.88.26-14.15.43-26.84-1.35-40.44-5.22q-1.36-.38-2.74-.76c-5.14-1.48-8.84-3.12-13.26-6.24-.9-.28-1.8-.57-2.72-.86-3.79-1.31-7.06-3.18-10.46-5.26-.65-.4-1.31-.79-1.98-1.2-9.65-5.93-18.91-12.55-26.83-20.68q-1.27-1.24-2.56-2.5c-2.33-2.39-4.37-4.88-6.44-7.5-.58-.56-1.16-1.11-1.75-1.69q-1.25-1.31-1.25-3.31-1.49-.49-3-1-1.39-1.75-2.81-4-2.23-3.53-4.63-6.93c-8.77-11.89-17.09-31.2-16.56-46.07Z"/>
  <path class="st39" d="M335,585c3.82.7,6.85,2.43,10.25,4.25,13.33,6.88,28.75,11.16,43.67,12.51,2.11.25,4.08.68,6.14,1.18,15.07,3.45,30.55,3.61,45.94,4.06q-.33,1.91-1,4c-10.32,5.45-21.6,5.88-33,6-.95.02-1.9.04-2.88.06-3.04.06-6.08.1-9.12.13-.94.01-1.89.03-2.86.04-11.35.01-20.7-2.94-31.14-7.23-.82-.3-1.63-.59-2.48-.9-9.18-3.54-18.19-11.85-23.52-20.1v-4Z"/>
  <path class="st33" d="M393,672c3.66.69,6.51,2.26,9.75,4.06,32.82,17.85,70.69,32.13,108.23,21.57,4.04-1.26,7.9-2.89,11.73-4.68q2.29-.95,5.29-.95-.06,2.19-1,5c-5.12,4.36-10.94,7.16-17,10-.76.36-1.51.72-2.29,1.1q-14.82,6.88-20.71,4.9c.68-.16,1.36-.32,2.05-.48,6.05-1.52,11.35-3.49,16.85-6.43q2.09-1.09,5.09-2.09c.33-.66.66-1.32,1-2-1.48.14-2.96.29-4.44.44q-1.24.12-2.5.25-2.05.11-3.07,1.32c-1.99.1-3.98.13-5.97.13-1.21,0-2.42,0-3.67,0-1.27,0-2.55,0-3.86-.01-1.27,0-2.55,0-3.86.01q-1.82,0-3.67,0c-1.12,0-2.24,0-3.39,0q-2.58-.13-3.58-1.13c-1.34-.23-2.69-.39-4.04-.54-.81-.09-1.62-.17-2.45-.26-.85-.09-1.7-.17-2.58-.26-.85-.09-1.71-.18-2.59-.28-2.12-.22-4.23-.44-6.35-.66v-2q-.96-.02-1.95-.04c-6.93-.37-12.51-2.04-18.9-4.7-3.56-1.42-7.12-2.46-10.83-3.39-3.11-1.17-5.56-3.02-8.32-4.87-2.65-1.43-5.35-2.75-8.06-4.06-4.43-2.16-8.74-4.34-12.94-6.94-.66-.33-1.32-.66-2-1v-2Z"/>
  <path class="st14" d="M324,604c2.73.35,3.78.75,5.61,2.86.52.81,1.04,1.62,1.58,2.45,6,8.97,12.37,17.45,19.69,25.38,1.95,2.12,3.82,4.3,5.68,6.5,3.5,4.01,7.35,7.42,11.44,10.81.92.77,1.83,1.54,2.78,2.33q5.3,4.47,11.05,8.31,1.07.67,2.17,1.36v2l6,2v2q1.49.5,3,1c-1.32.33-2.64.66-4,1-.33-.99-.66-1.98-1-3-1.64-.72-3.32-1.37-5-2-1.6-.78-3.18-1.6-4.75-2.44q-1.17-.62-2.36-1.25-1.89-1.32-2.89-4.32c-.99-.66-1.98-1.32-3-2v-2c-1.65-.66-3.3-1.32-5-2v-2c-.59-.09-1.18-.18-1.79-.27-2.81-.93-3.79-2.2-5.65-4.48-2.08-2.5-4.14-4.89-6.5-7.12q-2.06-2.12-2.06-4.12h-2v-2l-3-1v-2h-2l-1-4h-2l-1-4h-2q-3-5.75-3-8c-1.65-.33-3.3-.66-5-1,1.46,7.59,3.18,14.18,7.11,20.88,1.05,2.51.82,3.61-.11,6.12q-11.42-24.71-11-36Z"/>
  <path class="st29" d="M406,606c11.55.33,23.1.66,35,1-.33,1.32-.66,2.64-1,4-10.3,5.43-21.62,5.92-33,6q-1.51.01-3.04.03c-6.65.04-13.3.03-19.96-.03v-1q1.97-.09,3.98-.18c1.74-.08,3.47-.17,5.21-.25.86-.04,1.73-.08,2.62-.12q6.17-.23,12.19-1.44l1-2c2.71-.31,5.34-.51,8.06-.62.76-.04,1.52-.08,2.3-.12,1.88-.09,3.76-.18,5.64-.26.33-.99.66-1.98,1-3h-20v-2Z"/>
  <path class="st6" d="M418,672h7c.33.66.66,1.32,1,2,1.95.76,3.94,1.44,5.94,2.06q5.94,1.88,8.06,2.94c1.7.23,3.41.41,5.12.56.91.08,1.82.17,2.76.25.7.06,1.4.12,2.12.18v2h8v2c.95-.01,1.91-.02,2.89-.04,1.25,0,2.51-.02,3.8-.03,1.24-.01,2.48-.02,3.76-.04,3.05.08,5.58.5,8.55,1.1,15.46.85,30.68-1.06,46-3v-2h10c-2.98,2.98-6.68,3.24-10.69,4.06-.86.18-1.72.35-2.61.53-15.41,3.02-31.05,2.65-46.7,2.4-1.22-.02-2.44-.03-3.69-.05-15.96-.73-31.64-5.94-46.31-11.95-1.67-.67-3.33-1.33-5-2v-1Z"/>
  <path class="st43" d="M528,692q-.06,2.19-1,5c-5.12,4.36-10.94,7.16-17,10q-1.13.54-2.29,1.1-14.82,6.88-20.71,4.9c.68-.16,1.36-.32,2.05-.48,6.05-1.52,11.35-3.49,16.85-6.43q2.09-1.09,5.09-2.09l1-2c-3.3.33-6.6.66-10,1v-2c.7-.13,1.4-.27,2.12-.4q1.37-.26,2.76-.54t2.74-.53q2.38-.43,4.38-1.54c2-.04,4-.04,6,0v-2h2v-3q3-1,6-1ZM475,703h27v1h-27v-1Z"/>
  <path class="st11" d="M556,432c4.4.67,8.01,2.08,12,4,.33.66.66,1.32,1,2h-6v-2h-3c.33.87.66,1.73,1,2.62.99,3.33,1.16,5.93,1,9.38.99.33,1.98.66,3,1,1.64,18.32,2,36.81-1,55h-2l-1,4c-1.3-3.65-.66-6.07.38-9.75,6.23-22.25,1.77-44.81-5.38-66.25Z"/>
  <path class="st37" d="M630,512c2.14,3.21,2.99,5.86,4.06,9.56.34,1.16.68,2.31,1.04,3.5,4.43,17.56,3.32,38.52-1.1,55.93h-1q-.13-6.56.49-8.72c.78-3.47.72-6.95.75-10.49,0-.8.02-1.61.02-2.44.01-1.71.02-3.41.03-5.12.01-1.72.03-3.44.06-5.16.17-9.98-.17-18.61-3.49-28.11-.91-3.13-1.02-5.72-.86-8.96Z"/>
  <path class="st35" d="M357,618c2.81.4,5.58.86,8.38,1.38,13.16,2.4,25.98,2.76,39.31,2.69,1.68,0,3.37,0,5.05-.01,4.09-.01,8.17-.03,12.26-.05v1c-5.22,1.06-10.26,1.16-15.56,1.17-.91,0-1.82,0-2.76.01-1.92,0-3.83,0-5.75,0-2.92,0-5.85.02-8.77.04-1.87,0-3.73,0-5.6,0q-1.3.01-2.63.02c-4.73-.02-8.46-.49-12.93-2.25-1.62-.26-3.24-.48-4.88-.62-.78-.07-1.56-.15-2.37-.23-.58-.05-1.16-.1-1.76-.15v3c-.99-1.65-1.98-3.3-3-5l1-1Z"/>
  <path class="st23" d="M406,606c11.55.33,23.1.66,35,1v2h-4v2c-3.52,1.17-6.31,1.2-10,1-.66-.66-1.32-1.32-2-2,.33-.66.66-1.32,1-2h-20v-2Z"/>
  <path class="st19" d="M324,604q3.88.88,5,2c.04,2,.04,4,0,6h2l-1,2c-.66-.33-1.32-.66-2-1,1.46,7.59,3.18,14.18,7.11,20.88,1.05,2.51.82,3.61-.11,6.12q-11.42-24.71-11-36Z"/>
  <path class="st4" d="M435,714q6.75-.12,9,1c1.52.15,3.04.25,4.57.32q1.34.06,2.71.13c.94.04,1.87.08,2.84.12q1.42.06,2.86.13c2.34.11,4.67.21,7.01.31v-2h23c-9.26,4.63-22.3,3.11-32.5,3.19-1.01.01-2.03.03-3.07.04-5.84,0-10.83-.54-16.43-2.23v-1Z"/>
  <path class="st9" d="M335,585c3.01.64,5.52,1.65,8.25,3.06.71.36,1.41.72,2.14,1.1.53.28,1.06.55,1.61.84v1c-1.98.33-3.96.66-6,1,.66.62,1.32,1.24,2,1.88q2,2.12,2,4.12h3l-1,3c-4.5-3.66-8.61-7.27-12-12v-4Z"/>
  <path class="st18" d="M611,475c4.02,3.7,6.69,7.42,9.31,12.19.36.63.72,1.26,1.09,1.9q2.6,4.63,2.6,6.91h-4c-2.46-5.26-4.56-10.37-6-16h-3v-5Z"/>
  <path class="st40" d="M341,591h6v3c2.67.89,5.24,1.48,8,2v2h-3l-1,3-3-1v-2h-3c-.33-1.32-.66-2.64-1-4-1.32-.33-2.64-.66-4-1l1-2Z"/>
  <path class="st26" d="M363,610c1.92-.05,3.83-.09,5.75-.12q1.6-.03,3.23-.07c2.99.19,4.48.69,7.02,2.2,1.66.68,3.33,1.35,5,2v2c-7.82.77-13.88-1.96-21-5v-1Z"/>
  <path class="st16" d="M493,594l2,1q-2.31,2.5-5,5h-3v2c-1.11.29-2.23.58-3.38.88q-3.63.82-5.62,3.12c-1.99.4-3.99.74-6,1,2.65-3.08,5.8-4.64,9.38-6.5q4.78-2.51,9.41-5.28c.73-.4,1.46-.8,2.21-1.22Z"/>
  <path class="st41" d="M448,617c-9,3.82-16.24,5.17-26,5,3.64-2.15,7.46-2.82,11.56-3.56q11.9-2.22,14.44-1.44Z"/>
  <path class="st10" d="M511,704l2,1c-4.53,3.31-8.77,5.2-14.12,6.81-.7.23-1.41.46-2.13.69q-6.3,1.95-9.75.49c.68-.16,1.36-.32,2.05-.48,6.05-1.52,11.35-3.49,16.85-6.43q2.09-1.09,5.09-2.09Z"/>
  <path class="st17" d="M580,654l4,1c-1.56,1.13-3.12,2.25-4.69,3.38-.87.63-1.74,1.25-2.64,1.9-2.51,1.62-4.87,2.73-7.68,3.73v-2h2v-4h6v-2h3v-2Z"/>
  <path class="st38" d="M614,618h3c-1.56,4.91-4.43,8.38-7.62,12.31q-.77.97-1.56,1.96c-1.27,1.58-2.54,3.16-3.81,4.73l-1-2,1-3h2v-2h2c.66-1.98,1.32-3.96,2-6h2v-2h2v-4Z"/>
  <path class="st8" d="M556,518h1c.33,2.97.66,5.94,1,9q-1.14.65-2.31,1.31c-2.29,1.44-3.85,2.76-5.69,4.69,1.64-5.23,3.39-10.15,6-15Z"/>
  <path class="st25" d="M416,709q6.93.5,14,1v2c1.65.33,3.3.66,5,1v1c-6.69-.54-12.63-1.89-19-4v-1Z"/>
  <path class="st32" d="M564,664h5c-3.87,3.39-8.1,6.33-13,8l-3-1c.33-.99.66-1.98,1-3q2.03-.66,4.5-1.06t4.5-.94l1-2Z"/>
  <path class="st6" d="M386,652h5c.19.58.37,1.15.56,1.75,2.14,3.35,4.93,4.43,8.44,6.25v2l3,1-3,1q-2.59-1.77-5.5-4.25c-.96-.81-1.92-1.62-2.91-2.45-1.94-1.72-3.8-3.43-5.59-5.3Z"/>
  <path class="st2" d="M367,598c1.94.28,3.88.58,5.81.88,1.08.16,2.16.32,3.27.49q2.92.63,5.92,2.63h-13v-2h-2v-2Z"/>
  <path class="st30" d="M347,591c1.61.45,3.21.91,4.81,1.38l2.71.77q2.48.85,5.48,2.85c-1.79.05-3.58.09-5.38.12-1,.02-2,.05-3.02.07q-2.6-.2-4.6-2.2v-3Z"/>
  <path class="st1" d="M528,565v5c-1.79.98-3.58,1.95-5.37,2.93q-1.8.98-2.63,3.07l-3-1c1.64-1.67,3.29-3.34,4.94-5,.92-.93,1.83-1.86,2.78-2.81q2.29-2.19,3.29-2.19Z"/>
  <path class="st20" d="M351,662h2v2h2v2h4c.33,1.98.66,3.96,1,6-4.29-1.59-6.32-4.43-9-8v-2Z"/>
  <path class="st19" d="M405,704h7c.29.64.58,1.28.88,1.94q.95,2.21,3.12,3.06c-4.81.57-7.24-1.12-11-4v-1Z"/>
  <path class="st21" d="M549,533c1.42,4.25.19,6.72-1,11h-4c1.23-4.05,2.7-7.44,5-11Z"/>
  <path class="st24" d="M347,601c1.65.4,3.3.82,4.94,1.25.92.23,1.83.46,2.78.7q2.29,1.05,3.1,3.16c.06.62.12,1.25.18,1.89-3.12-.61-5.19-1.62-7.75-3.5-.61-.44-1.23-.89-1.86-1.34-.46-.38-.92-.76-1.39-1.16v-1Z"/>
  <path class="st5" d="M611,475c3.26,3.09,6.02,5.93,8,10l-1,2c-2.5-2.17-3.44-3.73-4-7h-3v-5Z"/>
  <path class="st7" d="M535,557q1,3,.06,5.19-.53.9-1.06,1.81h-3v2h-3v-2c1.65-1.35,3.32-2.68,5-4,.66-.99,1.32-1.98,2-3Z"/>
  <path class="st28" d="M602,464c3.64,3.43,6.36,6.8,9,11-.99-.33-1.98-.66-3-1v-2h-2v-2h-2c-.66-1.98-1.32-3.96-2-6Z"/>
  <path class="st36" d="M528,692v4c-1.65.33-3.3.66-5,1-.33-1.32-.66-2.64-1-4q3-1,6-1Z"/>
  <path class="st42" d="M360,672h3c.33,1.32.66,2.64,1,4h4c-.33,1.32-.66,2.64-1,4q-5.88-4.62-7-8Z"/>
  <path class="st13" d="M452,617l-4,1v2h-8c1.33-.67,2.67-1.33,4-2,.66-.39,1.32-.78,2-1.19,2.43-.99,3.57-.68,6,.19Z"/>
  <path class="st31" d="M352,640c2.04,1.62,4.04,3.29,6,5v2c.66.33,1.32.66,2,1q-1.94-.31-4-1c-.33-.99-.66-1.98-1-3h-3v-4Z"/>
  <path class="st22" d="M629,584h3c-.66,3.3-1.32,6.6-2,10h-1v-10Z"/>
  <path class="st12" d="M341,594h3c.33,1.32.66,2.64,1,4h3c-.33.99-.66,1.98-1,3-2.04-1.62-4.04-3.29-6-5v-2Z"/>
  <path class="st34" d="M516,576q0,3-2.31,5.69-2.69,2.31-5.69,2.31v-2c1.97-1.37,3.98-2.7,6-4l2-2Z"/>
  <path class="st0" d="M620,608h3c-1.19,3.38-2.28,5.65-5,8q.88-6.88,2-8Z"/>
  <path class="st15" d="M434,608h7c-1.32.33-2.64.66-4,1v2c-1.98.33-3.96.66-6,1,.33-.66.66-1.32,1-2h2v-2Z"/>
  <path class="st3" d="M310.21,453.8c-.99.23-1.97.47-2.95.71.06.3.13.57.22.88,1.17.11,2.34.19,3.51.2,0,0,0,0,0,0v-1.6c-.27-.07-.52-.13-.79-.2Z"/>
  <path class="st44" d="M0,0"/>
  <path class="st46" d="M0,0"/>
  <path class="st46" d="M0,0"/>
  <path class="st44" d="M794,721l2,1-2-1Z"/>
  <path class="st44" d="M0,0"/>
  <path class="st44" d="M0,0"/>
  <path class="st44" d="M0,0"/>
  <path class="st44" d="M0,0"/>
  <path class="st44" d="M0,0"/>
  <path class="st44" d="M0,0"/>
  <path class="st44" d="M0,0"/>
  <path class="st44" d="M0,0"/>
  <path class="st44" d="M0,0"/>
  <path class="st44" d="M0,0"/>
  <path class="st44" d="M0,0"/>
  <path class="st44" d="M0,0"/>
  <path class="st44" d="M0,0"/>
  <path class="st44" d="M0,0"/>
  <path class="st44" d="M0,0"/>
  <path class="st44" d="M0,0"/>
  <path class="st44" d="M0,0"/>
  <path class="st44" d="M0,0"/>
  <path class="st44" d="M0,0"/>
  <path class="st44" d="M0,0"/>
  <path class="st44" d="M0,0"/>
  <path class="st44" d="M0,0"/>
  <path class="st44" d="M0,0"/>
  <path class="st44" d="M0,0"/>
  <path class="st44" d="M0,0"/>
  <path class="st44" d="M0,0"/>
  <path class="st44" d="M0,0"/>
  <path class="st44" d="M0,0"/>
  <path class="st44" d="M0,0"/>
  <path class="st44" d="M0,0"/>
  <path class="st44" d="M0,0"/>
  <path class="st44" d="M0,0"/>
  <path class="st44" d="M0,0"/>
  <path class="st44" d="M0,0"/>
  <path class="st44" d="M0,0"/>
  <path class="st44" d="M0,0"/>
  <path class="st44" d="M0,0"/>
  <path class="st44" d="M0,0"/>
</svg>