<?xml version="1.0" encoding="UTF-8"?>
<svg id="_レイヤー_1" data-name="レイヤー_1" xmlns="http://www.w3.org/2000/svg" version="1.1" viewBox="0 0 1280 886">
  <!-- Generator: Adobe Illustrator 30.2.1, SVG Export Plug-In . SVG Version: 2.1.1 Build 1)  -->
  <defs>
    <style>
      .st0 {
        fill: #f8f4fc;
      }

      .st1 {
        fill: #fbecf1;
      }

      .st2 {
        fill: #f3eef8;
      }

      .st3 {
        fill: #fff1e0;
      }

      .st4 {
        fill: #ede8f2;
      }

      .st5 {
        fill: #dcd1ec;
      }

      .st6 {
        fill: #dcd4e7;
      }

      .st7 {
        fill: #e3daef;
      }

      .st8 {
        fill: #fce2eb;
      }

      .st9 {
        fill: #faf7fc;
      }

      .st10 {
        fill: #f7f4fc;
      }

      .st11 {
        fill: #f5effa;
      }

      .st12 {
        fill: #f3eff7;
      }

      .st13 {
        fill: #d8cde4;
      }

      .st14 {
        fill: #dfd6e8;
      }

      .st15 {
        fill: #f9f5fc;
      }

      .st16 {
        fill: #e5dcf1;
      }

      .st17 {
        fill: #c0b5cf;
      }

      .st18 {
        fill: #f1edf7;
      }

      .st19 {
        fill: #f4f1f9;
      }

      .st20 {
        fill: #e6def0;
      }

      .st21 {
        fill: #fbf0e3;
      }

      .st22 {
        fill: #d1c7de;
      }

      .st23 {
        fill: #f8f5fb;
      }

      .st24 {
        fill: #c6b5db;
      }

      .st25 {
        fill: #f6f2fa;
      }

      .st26 {
        fill: #f7dcc5;
      }

      .st27 {
        fill: #f0eaf8;
      }

      .st28 {
        fill: #f7f5fb;
      }

      .st29 {
        fill: #c5e7e6;
      }
    </style>
  </defs>
  <path class="st16" d="M573,148q0,4-1.27,5.7-.88.83-1.77,1.69c-.64.62-1.28,1.25-1.94,1.89-.69.65-1.38,1.3-2.08,1.97-1.39,1.35-2.78,2.7-4.16,4.06-.66.64-1.32,1.29-2,1.95-3.13,3.08-5.99,6.35-8.77,9.74-.62.74-1.23,1.48-1.87,2.24-13.07,15.95-24,33.83-34.13,51.76-.43.76-.86,1.52-1.3,2.31-8.93,15.97-15.92,32.73-22.7,49.69-.39.98-.79,1.95-1.19,2.96-7.12,17.85-11.92,36.49-16.81,55.04-.18.65-.35,1.31-.53,1.98-1.23,4.72-2.07,9.42-2.72,14.26-.11.76-.21,1.52-.32,2.3-.22,1.6-.44,3.19-.66,4.79-.33,2.41-.66,4.81-1,7.21-4.92,35.5-6.64,80.77,16.04,110.9,3.96,4.61,8.46,8.58,13.06,12.53.7.67,1.4,1.34,2.12,2.03v2c-28.68,7.37-66-9.86-90-24-7.42-4.66-13.79-10.35-20.14-16.34-2.5-2.34-5.06-4.57-7.67-6.79-22.3-19.9-34.02-52.94-35.72-82.01-.54-10.64-.52-21.16.36-31.77.16-1.89.28-3.79.41-5.69,1.46-15.45,6.52-31.71,13.77-45.4.65-1.59,1.28-3.2,1.88-4.81,6-15.26,15.87-28.47,25.75-41.39,1.18-1.54,2.35-3.09,3.53-4.65,3.06-4.01,6.18-7.68,9.85-11.15.78-.8,1.57-1.61,2.38-2.44,2.56-2.5,5.21-4.79,7.94-7.1,1.43-1.24,2.78-2.56,4.12-3.9,31.83-31.83,80.26-53.82,124.56-59.56,1.44-.21,2.89-.41,4.33-.62,9.59-1.31,19-1.62,28.67-1.38Z"/>
  <path class="st20" d="M360,242c-.4,5.47-2.65,8.57-6,12.69-20.9,27.35-28.42,66.44-29,100.31q-.06,1.39-.12,2.8c-1.22,47.91,12.44,98.02,42.68,135.51.53.66,1.06,1.32,1.61,1.99,5.62,6.85,11.26,12.75,18.89,17.32,4.64,2.82,8.92,5.7,12.94,9.38v2c-6.17.45-10.65-1.02-16.31-3.38l-2.64-1.08c-13.86-5.83-26.29-13.22-38.05-22.54-.99-.66-1.98-1.32-3-2v-2q-.88-.39-1.77-.79c-13.16-7.12-23.35-22.88-31.23-35.21-.65-1-1.29-2.01-1.96-3.04-2.8-4.52-4.99-9.04-7.04-13.96-.47-1.13-.94-2.25-1.43-3.41-1.65-4.16-3.15-8.35-4.57-12.59-.25-.73-.5-1.47-.76-2.23-4.36-13.39-4.69-26.71-4.68-40.65,0-.87,0-1.75,0-2.65.04-15.98,1.08-31.03,6.25-46.29q.5-1.54,1-3.12c2.28-6.92,5.05-13.5,8.19-20.07.48-1.04.96-2.07,1.45-3.14,6.09-12.54,13.51-24.25,22.55-34.86.96-1.16,1.92-2.33,2.87-3.5,1-1.21,2-2.42,3-3.63.48-.58.95-1.16,1.45-1.76,1.18-1.41,2.43-2.77,3.68-4.11h2c.2-.53.4-1.06.61-1.61,2.02-3.47,4.78-5.92,7.71-8.64.57-.55,1.14-1.11,1.72-1.68,3.27-3.05,5.24-4.89,9.96-4.07ZM312,323c-.97,2.14-1.92,4.29-2.88,6.44-.53,1.19-1.07,2.39-1.62,3.62-12.29,30.12-6.93,71.54,5.17,100.68.29.68.58,1.37.89,2.07.27.63.54,1.25.81,1.9,2.05,4.54,4.65,8.32,7.62,12.29q.99-.49,2-1c-.98-5.6-2.27-11.03-3.91-16.48-9.41-32.8-9.28-68.74-6.25-102.53.13-1.66.16-3.33.16-5-.66-.66-1.32-1.32-2-2Z"/>
  <path class="st24" d="M479,347h2c-.02,1.11-.03,2.22-.05,3.37-.06,4.23-.09,8.45-.12,12.68-.01,1.81-.04,3.62-.06,5.43-.25,17.54,1.49,33.87,7.23,50.52.28.96.57,1.91.86,2.9,6.19,20.33,18.32,41.8,36.38,53.7,5.31,2.69,11,4.01,16.76,5.4.99.33,1.98.66,3,1q-1,3-3.04,4.32c-12.28,5.92-24.11,7.89-37.43,3.73-4.29-1.77-7.86-4.22-11.53-7.04-.6-.42-1.21-.84-1.83-1.27-14.1-10.57-18.94-31.31-21.5-47.87-.76-6.02-.82-12-.79-18.05,0-1.02,0-2.04.01-3.09.1-13.99,1.65-27.55,3.76-41.37.3-2,.58-4.01.86-6.02.95-6.57,2.75-12.3,5.5-18.34Z"/>
  <path class="st9" d="M317,305h2c-.12.55-.24,1.1-.37,1.66-7.65,36.17-8.11,79.22.37,115.34.19.81.37,1.61.57,2.44.59,2.52,1.2,5.04,1.81,7.56q.29,1.26.59,2.54c1.25,5.13,2.95,9.71,5.18,14.49,1.56,3.62,1.6,7.08,1.85,10.97h2q4,6.62,4,10h-2c-5.96-6.47-11.4-13.56-14-22-.99-.33-1.98-.66-3-1q-.81-1.89-1.44-4.25c-.94-3.15-1.52-4.7-3.69-7.25-2.69-3.59-2.68-7.11-2.88-11.5h-2c-.68-2.5-1.34-5-2-7.5-.19-.7-.38-1.39-.58-2.11-1.28-4.93-1.61-9.3-1.42-14.39h-2c-2.29-25.46-1.01-50.82,8-75,.32-.9.65-1.81.98-2.74.65-1.76,1.32-3.52,2.02-5.26h2q.15-1.02.31-2.06c.83-3.57,2.18-6.6,3.69-9.94ZM312,323c-.97,2.14-1.92,4.29-2.88,6.44-.53,1.19-1.07,2.39-1.62,3.62-12.29,30.12-6.93,71.54,5.17,100.68.29.68.58,1.37.89,2.07.27.63.54,1.25.81,1.9,2.05,4.54,4.65,8.32,7.62,12.29q.99-.49,2-1c-.98-5.6-2.27-11.03-3.91-16.48-9.41-32.8-9.28-68.74-6.25-102.53.13-1.66.16-3.33.16-5-.66-.66-1.32-1.32-2-2Z"/>
  <path class="st9" d="M326,319h2c-.49,6-1,12-1.54,18-.09.99-.17,1.98-.26,3-.18,2-.36,4-.54,6-2.81,32.46,1.99,68.23,14.12,98.49q1.22,3.51.22,6.51c-4.04-7.33-6.47-15.06-9-23q-.49-1.41-.98-2.84c-1.95-5.83-2.37-11.03-2.02-17.16h-2c-3.68-16.74-4.19-33.68-4.19-50.75,0-.8,0-1.59,0-2.41,0-2.27,0-4.55.02-6.82,0-.69,0-1.39,0-2.1q.05-4.8,1.16-5.91c.23-2.02.41-4.04.56-6.06.08-1.1.17-2.21.25-3.35.06-.85.12-1.71.18-2.59h2v-9Z"/>
  <path class="st18" d="M378,506c.52.35,1.04.7,1.58,1.07,5.28,3.54,10.63,6.97,16.04,10.32,2.09,1.41,3.78,2.68,5.38,4.61v2c-7.12.81-12.62-2.07-19-5q3-1,5-.06c.66.35,1.32.7,2,1.06h3v-2c-3.79-2.8-7.75-4.98-12-7v-2h-2v-3Z"/>
  <path class="st10" d="M464,411h1c.09,1.3.17,2.6.26,3.93.8,10.71,2.12,21.16,4.24,31.69.21,1.07.43,2.14.65,3.25q1,5.3,2.99,10.26.86,1.87-.14,4.87c-4.09-4.97-4.12-8.63-4-15h-2c-2.39-13.08-3.16-25.74-3-39Z"/>
  <path class="st25" d="M355,242h5c-.39,5.51-2.7,8.66-6.06,12.81-6.06,7.81-10.07,16.14-13.94,25.19-.97-3.38-.93-4.98.44-8.25.29-.71.57-1.41.87-2.14.23-.53.46-1.06.69-1.61h2q.36-1.26.72-2.54c1.48-4,3.46-7.28,5.78-10.84.4-.64.81-1.28,1.22-1.94,1.03-1.6,2.15-3.15,3.28-4.68h2c.66-1.65,1.32-3.3,2-5l-4-1Z"/>
  <path class="st0" d="M337,280h2c-1.44,5.4-2.93,10.79-4.5,16.16q-.4,1.38-.81,2.78c-.54,1.84-1.08,3.69-1.62,5.53-1.41,4.85-2.51,9.51-3.07,14.53h-1c-.1-5.79,0-11.29,1-17h2q.15-1.7.31-3.44c.81-6.5,3.16-12.55,5.69-18.56Z"/>
  <path class="st13" d="M528,478c1.9.28,3.79.58,5.69.88,1.06.16,2.11.32,3.2.49,2.91.59,5.4,1.44,8.11,2.63q-1,3-3.29,4.17c-.92.34-1.83.67-2.78,1.02-.92.34-1.84.69-2.79,1.04-.71.25-1.42.51-2.15.77v-2h3c-.33-.99-.66-1.98-1-3v-2c-2.64-.99-5.28-1.98-8-3v-1Z"/>
  <path class="st15" d="M341,451c1.96,1.96,2.69,3.23,3.8,5.7.34.73.67,1.47,1.02,2.22.69,1.53,1.39,3.07,2.08,4.6,2.05,4.46,4.26,8.47,7.1,12.47l-1,2q-3-3.75-3-6h-2c-.65-1.27-1.29-2.54-1.94-3.81-.36-.71-.72-1.42-1.09-2.14q-.97-2.04-1.97-5.04c-.66-.33-1.32-.66-2-1q-.41-2.07-.62-4.56c-.07-.83-.15-1.65-.23-2.5-.05-.64-.1-1.28-.15-1.93Z"/>
  <path class="st11" d="M288,384h2q.04.97.08,1.96c.12,2.93.24,5.86.36,8.79.04,1.02.08,2.03.12,3.08.04.98.08,1.96.13,2.97.04.9.07,1.8.11,2.73q.12,2.46.85,4.67c.12.59.23,1.19.36,1.8-.66.66-1.32,1.32-2,2-2.6-9.23-2.19-18.5-2-28Z"/>
  <path class="st23" d="M355,478c6.16,5.97,11.08,12.99,16,20l-2,1c-1.38-1.29-2.71-2.63-4-4v-2l-3-1q-1.82-2.65-3.69-5.94c-.62-1.08-1.25-2.16-1.89-3.28q-1.43-2.79-1.43-4.79Z"/>
  <path class="st28" d="M481,478c.68.69,1.37,1.39,2.07,2.11,3.16,3.16,6.44,6.18,9.74,9.21.6.55,1.19,1.1,1.81,1.67,1.46,1.34,2.92,2.68,4.38,4.02l-1,2c-2.04-1.62-4.04-3.29-6-5v-2c-.56-.06-1.11-.12-1.69-.19-3.38-1.19-5.02-3.09-7.31-5.81q-1.31-3.31-2-6Z"/>
  <path class="st22" d="M480,350c-.11,2.15-.24,4.29-.38,6.44-.07,1.19-.14,2.39-.21,3.62-.14.97-.27,1.94-.41,2.94q-.99.49-2,1c-.66-.66-1.32-1.32-2-2q.31-3.38,1-7c.14-.78.29-1.57.44-2.38.66-1.92,1.43-2.62,3.56-2.62Z"/>
  <path class="st2" d="M470,172l2,1c-4.17,3.76-7.75,5.85-13,8q-1.58,1.11-3.19,2.25-2.81,1.75-4.99,1.36c-.6-.2-1.2-.4-1.82-.61.53-.29,1.06-.58,1.6-.89,2.4-1.33,4.81-2.66,7.21-3.99.83-.46,1.67-.92,2.53-1.39.8-.44,1.6-.89,2.43-1.35.74-.41,1.48-.82,2.24-1.24,1.71-.98,3.36-2.05,4.99-3.15Z"/>
  <path class="st14" d="M482,402c1.77,3.53,3,6.81,4.19,10.56.36,1.14.73,2.27,1.11,3.44q.71,3-.29,6-1-1-1.06-3.56c.02-.8.04-1.61.06-2.44-1.32-.33-2.64-.66-4-1v-13Z"/>
  <path class="st5" d="M513,489l1,1c2.18.23,4.37.41,6.56.56q1.8.13,3.63.25c.93.06,1.85.12,2.81.18v1c-8,.2-15.26.13-23-2v-1q5.62-1.12,9,0Z"/>
  <path class="st27" d="M565.38,147.94c.74,0,1.47,0,2.23.01,1.8.01,3.6.03,5.39.05v1c-1,.06-2,.12-3.03.18-1.29.08-2.58.17-3.91.25-1.29.08-2.58.16-3.9.25q-3.02-.03-4.16,1.32c-2,.04-4,.04-6,0-.33-.66-.66-1.32-1-2,4.86-.97,9.45-1.12,14.38-1.06Z"/>
  <path class="st4" d="M342,254c.33.99.66,1.98,1,3-2.67,2.67-5.33,5.33-8,8l-2-1c1.62-2.04,3.29-4.04,5-6h2l2-4Z"/>
  <path class="st12" d="M293,336h1c-.33,3.96-.66,7.92-1,12h-2l-1,4c-.38-5.93.89-10.47,3-16Z"/>
  <path class="st6" d="M482,469q2.38.5,5,2c1.08,2.67,1.49,5.14,2,8-3.39-3.13-5.61-5.57-7-10Z"/>
  <path class="st17" d="M476,359q1.56,1.75,3,4-.12,2.12-1,4c-.99.66-1.98,1.32-3,2q-.12-6.62,1-10Z"/>
  <path class="st7" d="M472,440q2,3,2,7c.99.33,1.98.66,3,1-.66,1.65-1.32,3.3-2,5-1.67-2.96-2.33-5.37-2.62-8.75-.07-.8-.15-1.6-.23-2.42-.05-.6-.1-1.21-.15-1.83Z"/>
  <path class="st19" d="M369,266q.65,1.77,1,4-1,1.92-2.44,3.75-.71.92-1.43,1.86c-.37.46-.75.92-1.13,1.39,0-3.2.55-4.42,2-7.19.37-.72.74-1.43,1.12-2.17q.43-.81.88-1.64Z"/>
  <path class="st21" d="M544.95,544c.49-.26.99-.51,1.49-.75.17-.3.3-.51.62-1.06.03-.06.05-.12.08-.18-.86.03-1.71.08-2.55.15-.17.54-.37,1.15-.59,1.84h.95Z"/>
  <path class="st29" d="M711,785c.99.33,1.98.66,3,1h-3v-1Z"/>
  <path class="st1" d="M894,178h2v2h-2v-2Z"/>
  <path class="st8" d="M853,168v3-3Z"/>
  <path class="st8" d="M0,0"/>
  <path class="st26" d="M0,0"/>
  <path class="st3" d="M0,0"/>
  <path class="st3" d="M0,0"/>
  <path class="st3" d="M0,0"/>
  <path class="st3" d="M0,0"/>
  <path class="st3" d="M0,0"/>
  <path class="st3" d="M0,0"/>
  <path class="st3" d="M0,0"/>
  <path class="st3" d="M0,0"/>
  <path class="st3" d="M0,0"/>
  <path class="st3" d="M0,0"/>
  <path class="st3" d="M0,0"/>
  <path class="st3" d="M0,0"/>
  <path class="st3" d="M0,0"/>
  <path class="st3" d="M0,0"/>
  <path class="st3" d="M0,0"/>
  <path class="st3" d="M0,0"/>
  <path class="st3" d="M0,0"/>
  <path class="st3" d="M0,0"/>
  <path class="st3" d="M0,0"/>
  <path class="st3" d="M0,0"/>
  <path class="st3" d="M0,0"/>
  <path class="st3" d="M0,0"/>
  <path class="st3" d="M0,0"/>
  <path class="st3" d="M0,0"/>
  <path class="st3" d="M0,0"/>
  <path class="st3" d="M0,0"/>
  <path class="st3" d="M0,0"/>
  <path class="st3" d="M0,0"/>
  <path class="st3" d="M0,0"/>
  <path class="st3" d="M0,0"/>
  <path class="st3" d="M0,0"/>
  <path class="st3" d="M0,0"/>
  <path class="st3" d="M0,0"/>
  <path class="st3" d="M0,0"/>
</svg>